<?xml version="1.0" standalone="no"?>
<!DOCTYPE svg PUBLIC "-//W3C//DTD SVG 20010904//EN"
 "http://www.w3.org/TR/2001/REC-SVG-20010904/DTD/svg10.dtd">
<svg version="1.0" xmlns="http://www.w3.org/2000/svg"
 width="200.000000pt" height="200.000000pt" viewBox="0 0 200.000000 200.000000"
 preserveAspectRatio="xMidYMid meet">
<metadata>
Created by potrace 1.11, written by Peter Selinger 2001-2013
</metadata>
<g transform="translate(0.000000,200.000000) scale(0.100000,-0.100000)"
fill="#000000" stroke="none">
<path d="M905 1969 c-408 -38 -750 -332 -854 -735 -29 -111 -32 -311 -7 -430
72 -339 317 -613 647 -724 235 -80 511 -60 733 52 102 51 152 85 233 161 234
219 346 540 299 857 -24 157 -100 329 -203 458 -159 199 -411 337 -653 358
-36 3 -76 6 -90 8 -14 1 -61 -1 -105 -5z m175 -103 c118 -9 232 -43 336 -101
435 -243 579 -786 322 -1219 -58 -98 -201 -238 -302 -295 -87 -49 -210 -96
-283 -108 -27 -4 -106 -7 -178 -7 -110 1 -144 5 -218 28 -308 92 -534 327
-609 632 -29 122 -29 305 1 419 53 199 169 370 336 493 78 58 150 93 254 126
72 23 234 47 266 40 6 -2 39 -5 75 -8z"/>
<path d="M919 1816 c-2 -2 -22 -6 -44 -9 -158 -19 -331 -106 -454 -227 -224
-222 -300 -554 -196 -853 89 -253 282 -434 557 -519 98 -30 295 -32 408 -4
380 95 636 432 624 821 -10 357 -257 668 -604 765 -66 18 -279 37 -291 26z
m261 -67 c88 -22 240 -95 290 -139 19 -17 39 -35 45 -38 29 -20 119 -132 151
-188 36 -64 76 -169 89 -235 14 -68 13 -233 -2 -304 -88 -421 -498 -690 -914
-601 -393 84 -654 447 -607 847 38 326 288 599 607 664 94 19 250 16 341 -6z"/>
<path d="M850 1730 c-152 -31 -268 -96 -380 -210 -82 -83 -140 -181 -178 -300
-52 -163 -39 -370 32 -526 176 -383 646 -550 1014 -360 512 266 555 965 79
1288 -162 110 -369 149 -567 108z"/>
</g>
</svg>
